<svg xmlns:dc="http://purl.org/dc/elements/1.1/" xmlns:cc="http://creativecommons.org/ns#" xmlns:rdf="http://www.w3.org/1999/02/22-rdf-syntax-ns#" xmlns:svg="http://www.w3.org/2000/svg" xmlns="http://www.w3.org/2000/svg" viewBox="0 0 50 50" preserveAspectRatio="xMidYMid meet"><metadata><rdf:RDF><cc:Work><dc:format>image/svg+xml</dc:format><dc:type rdf:resource="http://purl.org/dc/dcmitype/StillImage"/><dc:title>Jdenticon</dc:title><dc:creator><cc:Agent><dc:title>Daniel Mester Pirttijärvi</dc:title></cc:Agent></dc:creator><dc:source>https://github.com/dmester/jdenticon</dc:source><cc:license rdf:resource="https://github.com/dmester/jdenticon/blob/master/LICENSE"/></cc:Work></rdf:RDF></metadata><mask id="avatarsRadiusMask"><rect width="50" height="50" rx="0" ry="0" x="0" y="0" fill="#fff"/></mask><g mask="url(#avatarsRadiusMask)"><path fill="#545454" d="M15 7a4,4 0 1,1 8,0a4,4 0 1,1 -8,0M27 7a4,4 0 1,1 8,0a4,4 0 1,1 -8,0M27 43a4,4 0 1,1 8,0a4,4 0 1,1 -8,0M15 43a4,4 0 1,1 8,0a4,4 0 1,1 -8,0M3 19a4,4 0 1,1 8,0a4,4 0 1,1 -8,0M39 19a4,4 0 1,1 8,0a4,4 0 1,1 -8,0M39 31a4,4 0 1,1 8,0a4,4 0 1,1 -8,0M3 31a4,4 0 1,1 8,0a4,4 0 1,1 -8,0"/><path fill="#d1757a" d="M1 7L7 1L13 7L7 13ZM43 1L49 7L43 13L37 7ZM49 43L43 49L37 43L43 37ZM7 49L1 43L7 37L13 43ZM13 13L25 13L25 25L13 25ZM17.3 20.4a3.1,3.1 0 1,0 6.2,0a3.1,3.1 0 1,0 -6.2,0M37 13L37 25L25 25L25 13ZM26.4 20.4a3.1,3.1 0 1,0 6.2,0a3.1,3.1 0 1,0 -6.2,0M37 37L25 37L25 25L37 25ZM26.4 29.6a3.1,3.1 0 1,0 6.2,0a3.1,3.1 0 1,0 -6.2,0M13 37L13 25L25 25L25 37ZM17.3 29.6a3.1,3.1 0 1,0 6.2,0a3.1,3.1 0 1,0 -6.2,0"/></g></svg>